<svg width="66" height="21" viewBox="0 0 66 21" fill="none" xmlns="http://www.w3.org/2000/svg">
<path d="M11.3191 4.33268L5.65955 3.81442L7.4058 5.65943V15.693L3.91329 15.382V3.66931L0 3.31688V0L11.3191 1.03653V4.33268ZM23.627 17.1649L20.0293 5.74235L16.4316 16.5222L12.6235 16.1698L17.7992 1.61698L18.1779 1.65844C19.3771 2.05232 20.6605 2.36328 22.0491 2.59131C22.1753 2.61204 22.3226 2.63278 22.4488 2.65351L27.4351 17.538L23.627 17.1649ZM36.6924 13.6199L32.6529 13.2675L34.3991 15.1125V18.1599L30.9066 17.849V9.88845L36.6713 10.4067C37.7443 10.5104 38.5228 9.74334 38.5228 8.64462C38.5228 7.54591 37.7443 6.63376 36.6713 6.55084L30.9066 6.03258V2.81935L36.6713 3.33761C39.6799 3.60711 42.0153 6.1155 42.0153 8.97631C42.0363 11.8164 39.701 13.8894 36.6924 13.6199ZM49.4421 19.5074L45.9496 19.1964V4.16684L49.4421 4.47779V19.5074ZM62.255 20.6683L59.3726 15.4649L55.9853 15.154L57.7316 16.999V20.2537L54.2391 19.9427V12.003L60.3405 12.5627C61.3083 12.6456 62.0867 11.8786 62.0867 10.7799C62.0867 9.68115 61.3083 8.76901 60.3405 8.68609L54.2391 8.12636V4.91313L60.3405 5.47286C63.2439 5.74236 65.5792 8.25074 65.5792 11.0908C65.5792 12.9358 64.4431 14.5114 62.76 15.1955L66 21L62.255 20.6683Z" fill="white"/>
</svg>
